<?xml version="1.0" standalone="no"?>
<!DOCTYPE svg PUBLIC "-//W3C//DTD SVG 20010904//EN"
 "http://www.w3.org/TR/2001/REC-SVG-20010904/DTD/svg10.dtd">
<svg version="1.0" xmlns="http://www.w3.org/2000/svg"
 width="456.000000pt" height="423.000000pt" viewBox="0 0 456.000000 423.000000"
 preserveAspectRatio="xMidYMid meet">
<metadata>
Created by potrace 1.16, written by Peter Selinger 2001-2019
</metadata>
<g transform="translate(0.000000,423.000000) scale(0.100000,-0.100000)"
fill="#000000" stroke="none">
<path d="M764 4075 c-282 -61 -503 -274 -586 -562 l-23 -78 0 -1265 0 -1265
23 -80 c76 -260 256 -448 517 -541 l80 -29 1245 -3 c906 -2 1265 0 1319 8 299
47 542 273 624 582 l22 83 0 1245 0 1245 -22 85 c-71 267 -254 464 -518 557
l-80 28 -1270 2 c-1032 1 -1281 -1 -1331 -12z m435 -642 c0 -16 -6 -59 -12
-98 l-12 -70 -143 -3 c-137 -2 -142 -3 -147 -25 -2 -12 -21 -114 -40 -227 -20
-113 -44 -248 -53 -300 l-17 -95 -114 -3 c-63 -1 -118 1 -123 6 -4 4 5 84 22
177 50 292 69 400 76 433 l7 32 -143 0 -142 0 6 33 c3 17 10 62 17 100 l11 67
404 0 404 0 -1 -27z m2192 2 c3 -2 -5 -62 -17 -132 -29 -161 -29 -160 -6 -141
45 40 79 48 207 48 101 0 133 -3 156 -17 55 -33 56 -48 9 -315 -23 -134 -47
-249 -52 -255 -13 -16 -84 -17 -125 -3 -57 20 -60 42 -31 213 14 84 24 155 21
160 -8 13 -221 8 -229 -5 -4 -7 -22 -93 -39 -193 l-31 -180 -112 -3 c-86 -2
-112 0 -112 10 0 7 9 63 20 123 47 269 120 688 120 691 0 6 216 5 221 -1z
m-1773 -260 c26 -31 27 -56 7 -161 -8 -44 -23 -130 -34 -193 -20 -118 -33
-147 -85 -185 -26 -20 -43 -21 -259 -24 -350 -5 -341 -15 -282 328 46 267 41
263 338 270 122 3 238 2 257 -2 19 -4 45 -19 58 -33z m1399 31 c6 -5 -16 -140
-28 -173 -8 -23 -12 -23 -162 -23 l-154 0 -16 -87 c-10 -49 -17 -94 -17 -100
0 -10 37 -13 150 -13 114 0 150 -3 150 -12 -1 -7 -9 -51 -18 -98 l-17 -85
-200 -3 c-110 -1 -211 0 -223 3 -13 3 -35 18 -48 32 -32 34 -31 65 9 289 49
272 44 267 317 274 203 5 249 5 257 -4z m-1077 -6 c0 -6 -13 -87 -30 -180 -16
-93 -30 -179 -30 -190 0 -19 6 -20 124 -20 71 0 127 4 131 10 3 5 19 85 36
177 16 93 32 178 35 191 4 21 9 22 109 22 77 0 105 -3 105 -12 0 -11 -48 -286
-91 -525 l-11 -63 -63 0 c-67 0 -107 20 -120 60 -8 26 -27 25 -51 -1 -40 -46
-90 -59 -227 -59 -146 0 -180 11 -202 65 -13 30 -11 54 25 261 22 126 42 239
45 252 5 21 10 22 110 22 65 0 105 -4 105 -10z m-890 -696 c0 -13 -163 -235
-168 -230 -4 5 23 185 34 224 3 12 134 18 134 6z m282 -30 l-4 -36 43 29 c40
27 49 28 177 31 74 2 145 1 158 -2 33 -9 73 -55 80 -92 4 -25 -36 -288 -72
-466 -6 -28 -6 -28 -85 -28 -95 0 -119 16 -119 78 0 21 9 87 20 147 11 60 20
119 20 132 l0 24 -127 -3 -127 -3 -31 -180 c-17 -100 -35 -186 -39 -193 -11
-19 -225 -17 -232 2 -5 13 8 94 78 479 l22 117 121 0 121 0 -4 -36z m1377 24
c0 -7 -8 -56 -18 -108 l-17 -95 -287 -3 c-287 -2 -288 -2 -297 -25 -8 -18 -60
-306 -60 -330 0 -4 80 -6 178 -5 l177 3 17 100 c10 55 20 106 23 113 3 9 37
12 120 12 103 0 115 -2 115 -18 0 -45 -50 -293 -65 -326 -22 -45 -78 -93 -125
-106 -48 -14 -571 -13 -607 1 -78 29 -100 87 -78 210 8 46 29 165 46 264 17
99 40 196 50 217 19 38 66 80 109 97 39 16 720 14 719 -1z m879 -2 c15 -8 35
-23 45 -34 40 -44 39 -71 -9 -341 -24 -141 -52 -273 -61 -294 -21 -48 -81
-103 -130 -117 -25 -8 -133 -10 -323 -8 -267 3 -287 4 -312 23 -37 28 -58 67
-58 109 0 19 16 124 35 233 49 280 53 300 69 330 21 40 78 92 112 103 16 4
159 9 317 9 228 1 294 -2 315 -13z m-2165 -1350 c7 -153 11 -188 20 -175 2 2
39 81 84 174 l81 170 54 3 55 3 7 -47 c3 -26 6 -86 7 -133 0 -47 4 -106 8
-131 l7 -45 87 178 86 177 50 0 c28 0 51 -3 51 -6 0 -5 -111 -238 -188 -394
l-37 -75 -76 -3 -77 -3 -7 136 c-4 74 -10 135 -14 134 -3 0 -35 -61 -71 -135
l-64 -135 -76 3 -75 3 -11 180 c-7 99 -12 206 -13 238 l-1 58 53 -3 52 -3 8
-169z m1139 169 c5 -5 -38 -226 -78 -402 l-17 -73 -48 0 c-42 0 -49 3 -49 20
0 19 85 421 95 448 4 12 86 18 97 7z m170 0 c5 -5 -19 -128 -77 -392 l-18 -83
-49 0 c-41 0 -48 3 -48 20 0 24 88 438 95 451 6 9 88 13 97 4z m614 -22 c-3
-16 -9 -43 -12 -60 l-7 -33 47 0 c50 0 57 -11 36 -64 -8 -23 -15 -26 -54 -26
-43 0 -45 -1 -56 -37 -5 -21 -13 -62 -16 -90 l-7 -53 42 0 c39 0 41 -2 41 -29
0 -57 -6 -61 -86 -61 -61 0 -78 4 -94 20 -11 11 -20 26 -20 33 0 14 78 397 85
415 3 7 24 12 56 12 51 0 51 0 45 -27z m-2095 -114 c13 -13 19 -29 16 -42 -3
-12 -11 -52 -18 -89 l-13 -67 -140 -3 c-133 -3 -141 -4 -141 -23 0 -19 8 -20
123 -23 l122 -3 0 -28 c0 -62 2 -61 -165 -61 -84 0 -161 3 -170 6 -34 13 -36
49 -9 170 38 179 43 183 237 184 126 0 139 -2 158 -21z m1078 11 c10 -5 21
-17 25 -25 6 -15 -47 -296 -60 -316 -3 -5 -79 -9 -170 -9 -153 0 -165 1 -185
21 -17 17 -19 28 -14 62 11 61 35 116 56 128 11 5 73 13 139 16 108 5 120 8
120 25 0 17 -10 18 -125 18 -123 0 -125 0 -125 23 0 12 3 32 6 45 6 22 9 22
161 22 85 0 162 -4 172 -10z m806 -10 c18 -20 18 -26 -6 -147 l-10 -52 -142
-3 c-134 -3 -142 -4 -142 -23 0 -19 8 -20 125 -25 l125 -5 -3 -30 c-5 -57 -1
-55 -161 -55 -183 0 -201 5 -201 59 0 48 24 171 45 226 24 66 48 74 211 75
127 0 143 -2 159 -20z"/>
<path d="M1177 2918 c-9 -51 -13 -96 -8 -101 4 -4 52 -6 106 -5 l99 3 17 90
c10 50 18 93 18 98 1 4 -48 7 -107 7 l-108 0 -17 -92z"/>
<path d="M3055 2278 c-2 -7 -16 -78 -30 -158 -14 -80 -28 -155 -30 -167 l-5
-23 180 0 c99 0 180 1 180 3 0 1 13 79 30 171 16 93 27 173 24 178 -9 14 -344
10 -349 -4z"/>
</g>
</svg>
